<?xml version="1.0" standalone="no"?>
<!DOCTYPE svg PUBLIC "-//W3C//DTD SVG 20010904//EN"
 "http://www.w3.org/TR/2001/REC-SVG-20010904/DTD/svg10.dtd">
<svg version="1.0" xmlns="http://www.w3.org/2000/svg"
 width="887.000000pt" height="887.000000pt" viewBox="0 0 887.000000 887.000000"
 preserveAspectRatio="xMidYMid meet">
<metadata>
Created by potrace 1.11, written by Peter Selinger 2001-2013
</metadata>
<g transform="translate(0.000000,887.000000) scale(0.100000,-0.100000)"
fill="#000000" stroke="none">
<path d="M7735 8419 c-850 -111 -1188 -186 -1646 -363 -94 -37 -97 -39 -103
-74 -33 -204 83 -551 290 -862 369 -556 920 -984 1409 -1095 87 -20 275 -22
286 -3 29 45 178 492 239 713 117 424 218 1102 208 1390 -5 141 -27 203 -89
259 -82 75 -227 83 -594 35z"/>
<path d="M5434 6446 c-211 -48 -388 -185 -479 -371 -233 -470 103 -1015 625
-1015 272 0 507 146 632 394 89 176 91 413 5 598 -85 182 -226 307 -422 374
-98 33 -264 42 -361 20z"/>
<path d="M3241 5595 c-18 -25 -29 -50 -25 -57 4 -6 3 -8 -4 -4 -6 4 -24 -17
-44 -49 -18 -30 -36 -55 -41 -55 -4 0 0 11 9 25 9 14 15 28 12 30 -16 16 -205
27 -378 22 -152 -4 -226 -11 -333 -31 -411 -78 -830 -293 -1292 -663 -157
-125 -185 -158 -185 -212 0 -35 40 -86 72 -94 13 -3 106 -13 208 -22 406 -36
616 -95 805 -226 120 -83 264 -249 332 -384 14 -27 32 -57 39 -66 11 -12 13
-31 8 -75 -4 -32 -9 -104 -11 -160 -4 -98 -5 -100 -32 -110 -15 -6 -154 -89
-310 -185 -209 -128 -287 -182 -299 -204 -14 -24 -17 -59 -17 -180 0 -141 2
-153 26 -205 38 -81 73 -169 68 -173 -2 -2 -47 -27 -100 -56 -209 -114 -450
-325 -557 -486 -110 -165 -192 -371 -233 -588 l-23 -117 47 -48 c26 -26 47
-53 47 -60 0 -7 9 -12 19 -12 17 0 36 -25 33 -42 -1 -4 6 -4 15 -1 12 5 15 2
10 -10 -4 -10 -2 -16 6 -14 7 1 11 -4 10 -10 -2 -7 3 -12 10 -10 6 1 11 -3 10
-10 -4 -20 118 -9 241 22 377 93 627 262 871 590 93 125 110 145 119 145 3 0
6 -46 6 -101 l0 -101 -44 -62 c-91 -126 -255 -290 -391 -393 -107 -80 -109
-83 -106 -151 1 -31 4 -58 6 -60 2 -2 29 8 60 22 213 97 532 411 750 737 51
76 71 99 83 94 9 -3 59 -9 112 -12 108 -6 199 8 224 36 10 11 96 146 192 302
156 254 174 288 170 318 -4 26 -2 31 6 23 15 -15 32 -16 23 -2 -3 6 1 10 9 10
9 0 16 -4 16 -10 0 -5 21 -10 48 -10 63 0 301 28 315 37 19 12 37 12 37 1 0
-6 -7 -8 -14 -5 -34 13 -2 -20 42 -43 217 -115 371 -269 462 -462 77 -164 116
-348 145 -673 21 -236 34 -265 117 -265 46 0 74 17 196 117 144 118 284 261
361 369 148 208 272 531 328 849 21 125 24 461 4 580 -14 90 -46 229 -55 244
-8 12 11 30 73 70 28 18 51 36 51 40 0 4 16 13 35 21 19 8 35 17 35 20 0 8
143 108 152 106 4 0 15 9 23 22 9 12 22 22 29 22 8 0 17 7 20 16 4 9 9 15 12
12 2 -3 21 10 41 28 20 19 43 34 50 34 7 0 13 4 13 9 0 4 21 25 48 45 47 36
88 70 127 105 11 9 47 40 80 67 33 27 62 51 65 54 3 3 53 48 113 100 74 65
103 96 95 102 -9 5 -6 8 8 8 11 0 29 9 39 20 10 11 20 18 22 16 3 -2 20 12 39
32 18 20 32 37 31 38 -1 2 -34 -6 -72 -18 -86 -25 -127 -34 -235 -53 -75 -14
-89 -20 -118 -50 -18 -19 -36 -35 -40 -35 -4 0 -18 -10 -32 -22 -37 -34 -91
-79 -140 -118 -24 -19 -53 -44 -65 -55 -24 -24 -103 -85 -110 -85 -2 0 -15
-10 -28 -22 -36 -35 -88 -78 -94 -78 -13 0 -51 -38 -45 -45 4 -5 2 -5 -4 -2
-13 7 -170 -100 -166 -114 1 -5 -2 -8 -6 -7 -4 2 -38 -17 -74 -41 -36 -24 -69
-43 -72 -43 -3 1 -18 -10 -32 -23 -15 -14 -33 -25 -40 -25 -8 0 -14 -4 -14 -9
0 -5 -46 -37 -102 -72 -57 -34 -117 -72 -134 -85 -17 -12 -39 -24 -50 -26 -10
-1 -28 -13 -40 -25 -11 -13 -24 -20 -28 -16 -4 4 -10 2 -14 -4 -4 -7 -73 -44
-152 -84 -80 -39 -146 -75 -148 -80 -2 -5 -14 -9 -27 -9 -12 0 -43 -12 -69
-26 -25 -14 -50 -23 -56 -19 -5 3 -10 2 -10 -4 0 -5 -10 -13 -22 -16 -13 -4
-46 -18 -75 -31 -28 -13 -57 -24 -62 -24 -6 0 -11 -5 -11 -12 0 -6 -3 -9 -6
-5 -4 3 -23 0 -43 -8 -20 -7 -71 -24 -113 -36 -42 -13 -74 -27 -71 -33 3 -5 1
-6 -4 -3 -6 4 -60 -5 -119 -18 -60 -14 -125 -27 -144 -30 -233 -28 -235 -28
-470 -10 -14 1 -32 4 -40 8 -31 11 -165 50 -177 50 -7 0 -13 5 -13 10 0 5 -7
6 -16 3 -8 -3 -13 -2 -10 3 3 5 -6 13 -22 19 -42 15 -201 137 -260 200 -76 81
-83 91 -85 113 -1 13 -6 18 -17 14 -12 -5 -12 -4 -3 6 10 10 9 15 -3 23 -8 6
-15 26 -17 43 -1 18 -6 33 -10 33 -5 0 -6 4 -3 9 3 5 -2 26 -11 47 -20 48 -33
385 -15 407 6 7 9 22 6 33 -10 38 79 424 98 424 5 0 7 4 4 9 -5 8 25 105 52
171 43 104 96 246 94 253 -1 4 1 7 6 7 7 0 25 37 37 78 3 12 11 22 16 22 6 0
8 4 5 9 -3 5 3 20 14 34 11 14 21 37 22 51 1 14 6 26 11 26 4 0 5 5 2 10 -3 6
-2 10 3 10 5 0 17 18 27 40 10 22 22 40 27 40 4 0 8 7 8 15 0 9 37 80 81 158
45 78 82 148 82 155 0 6 3 12 7 12 6 0 70 87 70 96 0 3 19 33 42 66 39 58 57
108 38 108 -5 0 -15 12 -23 28 -8 15 -28 51 -44 80 l-30 52 -32 -45z m26 -77
c-3 -8 -6 -5 -6 6 -1 11 2 17 5 13 3 -3 4 -12 1 -19z m-57 -138 c0 -5 -4 -10
-10 -10 -5 0 -10 5 -10 10 0 6 5 10 10 10 6 0 10 -4 10 -10z m-135 -50 c-11
-5 -16 -9 -11 -9 5 -1 3 -7 -3 -15 -9 -11 -9 -15 1 -19 7 -3 3 -4 -9 -4 -20 1
-21 3 -7 29 8 15 22 28 32 27 14 0 14 -2 -3 -9z m-45 -70 c0 -5 -5 -10 -11
-10 -5 0 -7 5 -4 10 3 6 8 10 11 10 2 0 4 -4 4 -10z m136 -47 c-11 -11 -19 6
-11 24 8 17 8 17 12 0 3 -10 2 -21 -1 -24z m-146 21 c-15 -4 -31 -34 -45 -81
-3 -13 -13 -23 -21 -23 -9 0 -14 -7 -12 -17 2 -10 -4 -25 -12 -33 -8 -9 -23
-27 -33 -40 -26 -37 17 50 65 133 25 42 46 67 57 66 13 -1 13 -2 1 -5z m-10
-74 c0 -5 -4 -10 -10 -10 -5 0 -10 5 -10 10 0 6 5 10 10 10 6 0 10 -4 10 -10z
m-60 -101 c0 -5 -4 -9 -10 -9 -5 0 -10 7 -10 16 0 8 5 12 10 9 6 -3 10 -10 10
-16z m-70 -57 c0 -5 -7 -17 -15 -28 -14 -18 -14 -17 -4 9 12 27 19 34 19 19z
m-26 -67 c-4 -8 -10 -15 -15 -15 -4 0 -6 7 -3 15 4 8 10 15 15 15 4 0 6 -7 3
-15z m-43 -80 c-12 -24 -27 -47 -32 -51 -5 -3 3 19 18 50 15 30 29 53 32 51 2
-3 -6 -25 -18 -50z m-47 -90 c-9 -14 -18 -25 -20 -25 -2 0 2 11 8 25 6 14 15
25 20 25 5 0 1 -11 -8 -25z m106 15 c0 -5 -4 -10 -10 -10 -5 0 -10 5 -10 10 0
6 5 10 10 10 6 0 10 -4 10 -10z m-135 -73 c-8 -13 -16 -35 -17 -50 -1 -14 -4
-24 -7 -22 -2 3 -10 -3 -17 -13 -8 -9 -2 11 13 46 14 34 30 62 35 62 5 0 2
-10 -7 -23z m-55 -127 c-6 -11 -13 -20 -16 -20 -2 0 0 9 6 20 6 11 13 20 16
20 2 0 0 -9 -6 -20z m-26 -68 c-4 -9 -8 -23 -8 -31 -1 -8 -6 -16 -13 -18 -9
-3 -8 9 4 44 9 26 18 42 21 35 2 -7 1 -20 -4 -30z m-38 -99 c-11 -11 -17 4 -9
23 7 18 8 18 11 1 2 -10 1 -21 -2 -24z m-16 -34 c-7 -11 -14 -18 -17 -15 -3 3
0 12 7 21 18 21 23 19 10 -6z m-20 -59 c0 -11 -4 -20 -9 -20 -5 0 -7 9 -4 20
3 11 7 20 9 20 2 0 4 -9 4 -20z m90 -20 c0 -5 -4 -10 -10 -10 -5 0 -10 5 -10
10 0 6 5 10 10 10 6 0 10 -4 10 -10z m-95 -26 c-11 -8 -19 -23 -17 -33 1 -10
-4 -24 -13 -31 -8 -7 -13 -16 -10 -20 3 -5 1 -11 -5 -15 -14 -9 -13 5 5 56 15
42 29 59 50 59 6 -1 1 -7 -10 -16z m-5 -104 c0 -19 -11 -26 -23 -14 -8 8 3 34
14 34 5 0 9 -9 9 -20z m-61 -54 c-9 -8 -10 -7 -5 7 3 10 7 24 7 30 1 7 3 4 6
-7 3 -10 -1 -23 -8 -30z m-9 -45 c-4 -16 -5 -33 -2 -38 4 -4 1 -3 -5 2 -12 11
-6 65 7 65 5 0 5 -13 0 -29z m30 -31 c0 -5 -4 -10 -10 -10 -5 0 -10 5 -10 10
0 6 5 10 10 10 6 0 10 -4 10 -10z m-53 -32 c-3 -8 -6 -5 -6 6 -1 11 2 17 5 13
3 -3 4 -12 1 -19z m-2 -46 c-2 -9 -8 -29 -13 -43 -6 -15 -8 -29 -6 -32 3 -3 0
-8 -6 -12 -8 -5 -9 4 -4 32 4 21 10 39 14 41 4 2 5 12 2 24 -3 14 -1 19 6 14
6 -3 9 -14 7 -24z m75 -102 c0 -5 -4 -10 -10 -10 -5 0 -10 5 -10 10 0 6 5 10
10 10 6 0 10 -4 10 -10z m-113 -42 c-3 -7 -5 -2 -5 12 0 14 2 19 5 13 2 -7 2
-19 0 -25z m39 -54 c-9 -9 -20 -13 -24 -9 -4 4 -1 10 6 12 6 3 12 12 12 21 0
12 3 13 11 5 9 -9 7 -16 -5 -29z m34 -500 c0 -3 -7 -12 -15 -21 -20 -19 -32
-9 -15 12 12 15 30 20 30 9z m2860 -4 c0 -5 -4 -10 -10 -10 -5 0 -10 5 -10 10
0 6 5 10 10 10 6 0 10 -4 10 -10z m80 -61 c-7 -11 -14 -18 -17 -15 -3 3 0 12
7 21 18 21 23 19 10 -6z m-39 -19 c6 0 7 -5 4 -11 -4 -6 -10 -8 -13 -5 -3 3
-11 -3 -19 -14 -8 -11 -23 -20 -34 -20 -11 0 -17 -4 -14 -10 3 -5 -2 -10 -11
-10 -21 0 -8 16 28 34 14 8 22 19 20 30 -3 14 1 17 13 12 9 -3 21 -6 26 -6z
m-61 -20 c0 -5 -4 -10 -10 -10 -5 0 -10 5 -10 10 0 6 5 10 10 10 6 0 10 -4 10
-10z m-2876 -66 c3 -8 2 -12 -4 -9 -6 3 -10 10 -10 16 0 14 7 11 14 -7z m2817
-7 c-10 -9 -11 -8 -5 6 3 10 9 15 12 12 3 -3 0 -11 -7 -18z m-2741 -7 c0 -5
-4 -10 -10 -10 -5 0 -10 5 -10 10 0 6 5 10 10 10 6 0 10 -4 10 -10z m2715 -10
c-3 -5 -11 -10 -16 -10 -6 0 -7 5 -4 10 3 6 11 10 16 10 6 0 7 -4 4 -10z m-35
-17 c0 -9 -143 -93 -149 -87 -8 8 21 33 42 36 12 2 21 9 19 16 -1 8 2 11 7 8
13 -8 62 15 55 25 -3 5 2 9 10 9 9 0 16 -3 16 -7z m-2660 -74 c0 -5 -7 -9 -15
-9 -9 0 -12 6 -9 15 6 15 24 11 24 -6z m2176 -47 c-4 -3 -11 0 -16 8 -15 24
-11 33 6 15 9 -9 13 -19 10 -23z m318 30 c3 -5 -7 -15 -22 -23 -42 -21 -49
-22 -28 -5 11 9 25 16 30 16 6 0 4 5 -4 10 -13 8 -13 10 2 10 9 0 19 -4 22 -8z
m-2504 -16 c0 -2 -7 -7 -16 -10 -8 -3 -12 -2 -9 4 6 10 25 14 25 6z m2407 -26
c-4 -28 -15 -35 -12 -8 3 27 3 28 10 28 3 0 4 -9 2 -20z m-177 0 c0 -5 -4 -10
-10 -10 -5 0 -10 5 -10 10 0 6 5 10 10 10 6 0 10 -4 10 -10z m-2015 -10 c3 -5
1 -10 -4 -10 -6 0 -11 5 -11 10 0 6 2 10 4 10 3 0 8 -4 11 -10z m2165 -17 c0
-5 -18 -18 -40 -30 -22 -12 -40 -18 -40 -13 0 4 14 13 30 20 17 7 30 16 30 21
0 5 5 9 10 9 6 0 10 -3 10 -7z m-2210 -13 c0 -5 -4 -10 -10 -10 -5 0 -10 5
-10 10 0 6 5 10 10 10 6 0 10 -4 10 -10z m1980 -20 c0 -5 -4 -10 -10 -10 -5 0
-10 5 -10 10 0 6 5 10 10 10 6 0 10 -4 10 -10z m60 0 c0 -5 -4 -10 -10 -10 -5
0 -10 5 -10 10 0 6 5 10 10 10 6 0 10 -4 10 -10z m-2090 -98 c0 -3 -13 8 -30
26 -16 18 -30 36 -30 40 0 3 14 -8 30 -26 17 -18 30 -36 30 -40z m2030 38 c0
-5 -4 -10 -10 -10 -5 0 -10 5 -10 10 0 6 5 10 10 10 6 0 10 -4 10 -10z m70 3
c0 -7 -103 -53 -108 -49 -3 3 10 12 29 20 19 9 30 15 26 16 -5 0 -6 4 -3 9 5
7 56 11 56 4z m-230 -43 c0 -5 -4 -10 -10 -10 -5 0 -10 5 -10 10 0 6 5 10 10
10 6 0 10 -4 10 -10z m104 -19 c-5 -5 -20 -11 -34 -14 -23 -6 -23 -5 3 5 15 7
27 16 27 22 0 5 3 6 7 3 4 -4 2 -11 -3 -16z m-264 -21 c0 -5 -4 -10 -10 -10
-5 0 -10 5 -10 10 0 6 5 10 10 10 6 0 10 -4 10 -10z m60 0 c0 -5 -4 -10 -10
-10 -5 0 -10 5 -10 10 0 6 5 10 10 10 6 0 10 -4 10 -10z m139 -4 c-2 -2 -15
-9 -29 -16 -23 -12 -24 -12 -11 3 7 10 20 17 29 17 8 0 13 -2 11 -4z m-61 -31
c-4 -3 -209 -85 -214 -85 -2 0 -4 3 -4 8 0 4 27 15 60 26 33 10 64 24 71 32 6
8 15 12 19 9 5 -3 11 -1 15 5 4 6 10 8 15 5 5 -3 11 -1 15 5 4 6 11 8 16 4 6
-3 9 -7 7 -9z m-178 -5 c0 -5 -4 -10 -10 -10 -5 0 -10 5 -10 10 0 6 5 10 10
10 6 0 10 -4 10 -10z m-1240 -60 c0 -5 -4 -10 -10 -10 -5 0 -10 5 -10 10 0 6
5 10 10 10 6 0 10 -4 10 -10z m80 0 c0 -5 -4 -10 -10 -10 -5 0 -10 5 -10 10 0
6 5 10 10 10 6 0 10 -4 10 -10z m-40 -20 c0 -5 -4 -10 -10 -10 -5 0 -10 5 -10
10 0 6 5 10 10 10 6 0 10 -4 10 -10z m1140 1 c0 -5 -9 -11 -20 -14 -22 -6 -28
8 -7 16 19 8 27 8 27 -2z m-1345 -11 c3 -6 -1 -7 -9 -4 -18 7 -21 14 -7 14 6
0 13 -4 16 -10z m65 -10 c0 -5 -4 -10 -10 -10 -5 0 -10 5 -10 10 0 6 5 10 10
10 6 0 10 -4 10 -10z m880 0 c0 -5 -4 -10 -10 -10 -5 0 -10 5 -10 10 0 6 5 10
10 10 6 0 10 -4 10 -10z m340 -4 c0 -2 -9 -6 -20 -9 -11 -3 -20 -1 -20 4 0 5
9 9 20 9 11 0 20 -2 20 -4z m-1195 -34 c-3 -3 -11 0 -18 7 -9 10 -8 11 6 5 10
-3 15 -9 12 -12z m1145 14 c0 -2 -11 -6 -25 -8 -14 -3 -25 -1 -25 3 0 5 11 9
25 9 14 0 25 -2 25 -4z m-64 -13 c-3 -4 -22 -12 -41 -19 -26 -8 -35 -9 -36 0
0 7 -2 6 -6 -1 -2 -7 -12 -13 -21 -13 -15 1 -15 2 1 15 11 7 25 11 32 8 8 -2
22 0 32 6 20 12 50 15 39 4z m-1041 -13 c3 -6 -1 -7 -9 -4 -18 7 -21 14 -7 14
6 0 13 -4 16 -10z m915 -15 c0 -8 -4 -15 -10 -15 -5 0 -10 7 -10 15 0 8 5 15
10 15 6 0 10 -7 10 -15z m-795 -15 c3 -5 1 -10 -4 -10 -6 0 -11 5 -11 10 0 6
2 10 4 10 3 0 8 -4 11 -10z m750 0 c4 -6 -6 -10 -22 -9 -25 0 -26 1 -8 9 11 5
21 9 22 9 1 1 5 -3 8 -9z"/>
<path d="M4070 4729 c-180 -19 -345 -147 -411 -317 -27 -69 -37 -223 -20 -303
37 -173 179 -321 360 -376 60 -18 203 -17 276 3 155 40 285 163 341 323 18 51
24 87 24 162 0 119 -23 201 -80 287 -109 163 -286 243 -490 221z"/>
</g>
</svg>
